%TF.GenerationSoftware,KiCad,Pcbnew,5.1.6-c6e7f7d~86~ubuntu20.04.1*%
%TF.CreationDate,2020-06-06T21:26:27+05:30*%
%TF.ProjectId,Inverting Amplifier,496e7665-7274-4696-9e67-20416d706c69,rev?*%
%TF.SameCoordinates,Original*%
%TF.FileFunction,Copper,L1,Top*%
%TF.FilePolarity,Positive*%
%FSLAX46Y46*%
G04 Gerber Fmt 4.6, Leading zero omitted, Abs format (unit mm)*
G04 Created by KiCad (PCBNEW 5.1.6-c6e7f7d~86~ubuntu20.04.1) date 2020-06-06 21:26:27*
%MOMM*%
%LPD*%
G01*
G04 APERTURE LIST*
%TA.AperFunction,ComponentPad*%
%ADD10O,1.000000X1.000000*%
%TD*%
%TA.AperFunction,ComponentPad*%
%ADD11R,1.000000X1.000000*%
%TD*%
%TA.AperFunction,ComponentPad*%
%ADD12R,1.600000X1.600000*%
%TD*%
%TA.AperFunction,ComponentPad*%
%ADD13O,1.600000X1.600000*%
%TD*%
%TA.AperFunction,ComponentPad*%
%ADD14C,1.400000*%
%TD*%
%TA.AperFunction,ComponentPad*%
%ADD15O,1.400000X1.400000*%
%TD*%
%TA.AperFunction,Conductor*%
%ADD16C,0.250000*%
%TD*%
G04 APERTURE END LIST*
D10*
%TO.P,J3,3*%
%TO.N,-12V*%
X113030000Y-90170000D03*
%TO.P,J3,2*%
%TO.N,GND*%
X113030000Y-91440000D03*
D11*
%TO.P,J3,1*%
%TO.N,+12V*%
X113030000Y-92710000D03*
%TD*%
D10*
%TO.P,J2,2*%
%TO.N,Net-(J2-Pad2)*%
X113030000Y-96520000D03*
D11*
%TO.P,J2,1*%
%TO.N,GND*%
X111760000Y-96520000D03*
%TD*%
D10*
%TO.P,J1,2*%
%TO.N,GND*%
X111760000Y-86360000D03*
D11*
%TO.P,J1,1*%
%TO.N,Net-(J1-Pad1)*%
X113030000Y-86360000D03*
%TD*%
D12*
%TO.P,U1,1*%
%TO.N,Net-(U1-Pad1)*%
X128270000Y-87630000D03*
D13*
%TO.P,U1,5*%
%TO.N,Net-(U1-Pad5)*%
X120650000Y-95250000D03*
%TO.P,U1,2*%
%TO.N,Net-(R1-Pad1)*%
X125730000Y-87630000D03*
%TO.P,U1,6*%
%TO.N,Net-(J2-Pad2)*%
X123190000Y-95250000D03*
%TO.P,U1,3*%
%TO.N,GND*%
X123190000Y-87630000D03*
%TO.P,U1,7*%
%TO.N,+12V*%
X125730000Y-95250000D03*
%TO.P,U1,4*%
%TO.N,-12V*%
X120650000Y-87630000D03*
%TO.P,U1,8*%
%TO.N,Net-(U1-Pad8)*%
X128270000Y-95250000D03*
%TD*%
D14*
%TO.P,R2,1*%
%TO.N,Net-(R1-Pad1)*%
X133350000Y-87630000D03*
D15*
%TO.P,R2,2*%
%TO.N,Net-(J2-Pad2)*%
X133350000Y-95250000D03*
%TD*%
%TO.P,R1,2*%
%TO.N,Net-(J1-Pad1)*%
X137160000Y-87630000D03*
D14*
%TO.P,R1,1*%
%TO.N,Net-(R1-Pad1)*%
X137160000Y-95250000D03*
%TD*%
D16*
%TO.N,GND*%
X119380000Y-91440000D02*
X123190000Y-87630000D01*
X113030000Y-91440000D02*
X119380000Y-91440000D01*
X112322894Y-91440000D02*
X113030000Y-91440000D01*
X111760000Y-92002894D02*
X112322894Y-91440000D01*
X111760000Y-96520000D02*
X111760000Y-92002894D01*
X111760000Y-90877106D02*
X112322894Y-91440000D01*
X111760000Y-86360000D02*
X111760000Y-90877106D01*
%TO.N,Net-(J1-Pad1)*%
X113030000Y-86360000D02*
X113855300Y-86360000D01*
X137160000Y-87630000D02*
X136134700Y-87630000D01*
X136134700Y-87630000D02*
X134507700Y-86003000D01*
X134507700Y-86003000D02*
X114212300Y-86003000D01*
X114212300Y-86003000D02*
X113855300Y-86360000D01*
%TO.N,Net-(J2-Pad2)*%
X132324700Y-95250000D02*
X131199400Y-96375300D01*
X131199400Y-96375300D02*
X123190000Y-96375300D01*
X123190000Y-96375300D02*
X123045300Y-96520000D01*
X123045300Y-96520000D02*
X113855300Y-96520000D01*
X123190000Y-95250000D02*
X123190000Y-96375300D01*
X113030000Y-96520000D02*
X113855300Y-96520000D01*
X133350000Y-95250000D02*
X132324700Y-95250000D01*
%TO.N,-12V*%
X113030000Y-90170000D02*
X113855300Y-90170000D01*
X120650000Y-87630000D02*
X116395300Y-87630000D01*
X116395300Y-87630000D02*
X113855300Y-90170000D01*
%TO.N,+12V*%
X125730000Y-95250000D02*
X124604700Y-95250000D01*
X124604700Y-95250000D02*
X124604700Y-94968700D01*
X124604700Y-94968700D02*
X122346000Y-92710000D01*
X122346000Y-92710000D02*
X113030000Y-92710000D01*
%TO.N,Net-(R1-Pad1)*%
X126855300Y-87630000D02*
X126855300Y-86926600D01*
X126855300Y-86926600D02*
X127277200Y-86504700D01*
X127277200Y-86504700D02*
X132224700Y-86504700D01*
X132224700Y-86504700D02*
X133350000Y-87630000D01*
X125730000Y-87630000D02*
X126855300Y-87630000D01*
X137160000Y-95250000D02*
X133350000Y-91440000D01*
X133350000Y-91440000D02*
X133350000Y-87630000D01*
%TD*%
M02*
