%TF.GenerationSoftware,KiCad,Pcbnew,5.1.6-c6e7f7d~86~ubuntu20.04.1*%
%TF.CreationDate,2020-06-06T21:26:27+05:30*%
%TF.ProjectId,Inverting Amplifier,496e7665-7274-4696-9e67-20416d706c69,rev?*%
%TF.SameCoordinates,Original*%
%TF.FileFunction,Legend,Top*%
%TF.FilePolarity,Positive*%
%FSLAX46Y46*%
G04 Gerber Fmt 4.6, Leading zero omitted, Abs format (unit mm)*
G04 Created by KiCad (PCBNEW 5.1.6-c6e7f7d~86~ubuntu20.04.1) date 2020-06-06 21:26:27*
%MOMM*%
%LPD*%
G01*
G04 APERTURE LIST*
%ADD10C,0.120000*%
%ADD11C,0.150000*%
G04 APERTURE END LIST*
D10*
%TO.C,J3*%
X114360000Y-92075000D02*
X113790000Y-92075000D01*
X112270000Y-92075000D02*
X111700000Y-92075000D01*
X114360000Y-92075000D02*
X114360000Y-89475000D01*
X114360000Y-89475000D02*
X113337530Y-89475000D01*
X112722470Y-89475000D02*
X111700000Y-89475000D01*
X111700000Y-92075000D02*
X111700000Y-89475000D01*
X111700000Y-93470000D02*
X111700000Y-92710000D01*
X113030000Y-93470000D02*
X111700000Y-93470000D01*
%TO.C,J2*%
X112395000Y-97850000D02*
X112395000Y-97280000D01*
X112395000Y-95760000D02*
X112395000Y-95190000D01*
X112395000Y-97850000D02*
X113725000Y-97850000D01*
X113725000Y-97850000D02*
X113725000Y-96827530D01*
X113725000Y-96212470D02*
X113725000Y-95190000D01*
X112395000Y-95190000D02*
X113725000Y-95190000D01*
X111000000Y-95190000D02*
X111760000Y-95190000D01*
X111000000Y-96520000D02*
X111000000Y-95190000D01*
%TO.C,J1*%
X112395000Y-85030000D02*
X112395000Y-85600000D01*
X112395000Y-87120000D02*
X112395000Y-87690000D01*
X112395000Y-85030000D02*
X111065000Y-85030000D01*
X111065000Y-85030000D02*
X111065000Y-86052470D01*
X111065000Y-86667530D02*
X111065000Y-87690000D01*
X112395000Y-87690000D02*
X111065000Y-87690000D01*
X113790000Y-87690000D02*
X113030000Y-87690000D01*
X113790000Y-86360000D02*
X113790000Y-87690000D01*
%TO.C,U1*%
X129600000Y-94090000D02*
X129600000Y-92440000D01*
X119320000Y-94090000D02*
X129600000Y-94090000D01*
X119320000Y-88790000D02*
X119320000Y-94090000D01*
X129600000Y-88790000D02*
X119320000Y-88790000D01*
X129600000Y-90440000D02*
X129600000Y-88790000D01*
X129600000Y-92440000D02*
G75*
G02*
X129600000Y-90440000I0J1000000D01*
G01*
%TO.C,R2*%
X133350000Y-94310000D02*
X133350000Y-93360000D01*
X133350000Y-88570000D02*
X133350000Y-89520000D01*
X134270000Y-93360000D02*
X134270000Y-89520000D01*
X132430000Y-93360000D02*
X134270000Y-93360000D01*
X132430000Y-89520000D02*
X132430000Y-93360000D01*
X134270000Y-89520000D02*
X132430000Y-89520000D01*
%TO.C,R1*%
X136240000Y-93360000D02*
X138080000Y-93360000D01*
X138080000Y-93360000D02*
X138080000Y-89520000D01*
X138080000Y-89520000D02*
X136240000Y-89520000D01*
X136240000Y-89520000D02*
X136240000Y-93360000D01*
X137160000Y-94310000D02*
X137160000Y-93360000D01*
X137160000Y-88570000D02*
X137160000Y-89520000D01*
%TO.C,J3*%
D11*
X115022380Y-91773333D02*
X115736666Y-91773333D01*
X115879523Y-91820952D01*
X115974761Y-91916190D01*
X116022380Y-92059047D01*
X116022380Y-92154285D01*
X115022380Y-91392380D02*
X115022380Y-90773333D01*
X115403333Y-91106666D01*
X115403333Y-90963809D01*
X115450952Y-90868571D01*
X115498571Y-90820952D01*
X115593809Y-90773333D01*
X115831904Y-90773333D01*
X115927142Y-90820952D01*
X115974761Y-90868571D01*
X116022380Y-90963809D01*
X116022380Y-91249523D01*
X115974761Y-91344761D01*
X115927142Y-91392380D01*
%TO.C,J2*%
X115022380Y-96853333D02*
X115736666Y-96853333D01*
X115879523Y-96900952D01*
X115974761Y-96996190D01*
X116022380Y-97139047D01*
X116022380Y-97234285D01*
X115117619Y-96424761D02*
X115070000Y-96377142D01*
X115022380Y-96281904D01*
X115022380Y-96043809D01*
X115070000Y-95948571D01*
X115117619Y-95900952D01*
X115212857Y-95853333D01*
X115308095Y-95853333D01*
X115450952Y-95900952D01*
X116022380Y-96472380D01*
X116022380Y-95853333D01*
%TO.C,J1*%
X114617380Y-86693333D02*
X115331666Y-86693333D01*
X115474523Y-86740952D01*
X115569761Y-86836190D01*
X115617380Y-86979047D01*
X115617380Y-87074285D01*
X115617380Y-85693333D02*
X115617380Y-86264761D01*
X115617380Y-85979047D02*
X114617380Y-85979047D01*
X114760238Y-86074285D01*
X114855476Y-86169523D01*
X114903095Y-86264761D01*
%TO.C,U1*%
X130052380Y-92201904D02*
X130861904Y-92201904D01*
X130957142Y-92154285D01*
X131004761Y-92106666D01*
X131052380Y-92011428D01*
X131052380Y-91820952D01*
X131004761Y-91725714D01*
X130957142Y-91678095D01*
X130861904Y-91630476D01*
X130052380Y-91630476D01*
X131052380Y-90630476D02*
X131052380Y-91201904D01*
X131052380Y-90916190D02*
X130052380Y-90916190D01*
X130195238Y-91011428D01*
X130290476Y-91106666D01*
X130338095Y-91201904D01*
%TO.C,R2*%
X135722380Y-91606666D02*
X135246190Y-91940000D01*
X135722380Y-92178095D02*
X134722380Y-92178095D01*
X134722380Y-91797142D01*
X134770000Y-91701904D01*
X134817619Y-91654285D01*
X134912857Y-91606666D01*
X135055714Y-91606666D01*
X135150952Y-91654285D01*
X135198571Y-91701904D01*
X135246190Y-91797142D01*
X135246190Y-92178095D01*
X134817619Y-91225714D02*
X134770000Y-91178095D01*
X134722380Y-91082857D01*
X134722380Y-90844761D01*
X134770000Y-90749523D01*
X134817619Y-90701904D01*
X134912857Y-90654285D01*
X135008095Y-90654285D01*
X135150952Y-90701904D01*
X135722380Y-91273333D01*
X135722380Y-90654285D01*
%TO.C,R1*%
X139622380Y-91606666D02*
X139146190Y-91940000D01*
X139622380Y-92178095D02*
X138622380Y-92178095D01*
X138622380Y-91797142D01*
X138670000Y-91701904D01*
X138717619Y-91654285D01*
X138812857Y-91606666D01*
X138955714Y-91606666D01*
X139050952Y-91654285D01*
X139098571Y-91701904D01*
X139146190Y-91797142D01*
X139146190Y-92178095D01*
X139622380Y-90654285D02*
X139622380Y-91225714D01*
X139622380Y-90940000D02*
X138622380Y-90940000D01*
X138765238Y-91035238D01*
X138860476Y-91130476D01*
X138908095Y-91225714D01*
%TD*%
M02*
